@startuml
class Person{
String firstName
String lastName
String [] middleNames
String UTORid
String toString()
void changeName(String first, String last, String [] middleNames)
void changeName(String first)
}

class University{
String name
List<Person> people
void addPerson()
}

class Student{
int StudentNumber
}
University *-- Person
Person <-- Student
'https://plantuml.com/class-diagra
'abstract class AbstractList
'abstract AbstractCollection
'interface List
'interface Collection
'
'List <|-- AbstractList
'Collection <|-- AbstractCollection
'
'Collection <|- List
'AbstractCollection <|- AbstractList
'AbstractList <|-- ArrayList
'
'class ArrayList {
'Object[] elementData
'size()
'}
'
'enum TimeUnit {
'DAYS
'HOURS
'MINUTES
'}

@enduml